<svg width="394" height="130" viewBox="0 0 394 130" fill="none" xmlns="http://www.w3.org/2000/svg">
<path d="M48.3225 0.671875V15.1129C44.3403 15.1129 41.2333 15.6709 39.0015 16.7868C36.7697 17.9027 35.807 20.1235 36.1133 23.4493L38.1482 42.8134C38.6733 47.7146 38.1372 51.675 36.54 54.6945C34.9427 57.7139 32.514 60.0223 29.2538 61.6196C25.9937 63.2169 22.1537 64.3437 17.7338 65.0001C22.4162 65.7001 26.3766 66.8381 29.6148 68.4131C32.8531 69.9891 35.2162 72.2641 36.7041 75.2401C38.1919 78.2161 38.6733 82.1981 38.1482 87.1871L36.1133 106.551C35.807 109.877 36.7697 112.097 39.0015 113.213C41.2333 114.329 44.3403 114.887 48.3225 114.887V129.328C36.2446 129.328 27.766 127.501 22.8866 123.847C18.0073 120.193 16.0272 113.946 16.9461 105.107L18.9154 86.3331C19.2654 83.0081 18.7075 80.4041 17.2415 78.5221C15.7755 76.6401 13.6203 75.3171 10.7759 74.5511C7.93139 73.7851 4.64939 73.4021 0.929688 73.4021V56.598C4.60559 56.598 7.86579 56.2151 10.7102 55.4493C13.5547 54.6835 15.7208 53.3598 17.2087 51.478C18.6966 49.5963 19.2654 46.9926 18.9154 43.6668L16.9461 25.0247C15.9834 16.01 17.9526 9.69748 22.8538 6.08728C27.755 2.47698 36.2446 0.671875 48.3225 0.671875Z" fill="white"/>
<path d="M75.72 103.555C73.136 103.555 70.816 102.957 68.7588 101.761C66.7015 100.565 65.0748 98.9311 63.8787 96.8571C62.6826 94.7841 62.0845 92.4721 62.0845 89.9201C62.0845 87.3041 62.6826 84.9841 63.8787 82.9591C65.0748 80.9331 66.7015 79.3301 68.7588 78.1501C70.816 76.9701 73.136 76.3801 75.72 76.3801C78.336 76.3801 80.664 76.9781 82.705 78.1741C84.747 79.3701 86.365 80.9891 87.561 83.0301C88.758 85.0721 89.356 87.4001 89.356 90.0161C89.356 92.5991 88.758 94.9121 87.561 96.9531C86.365 98.9941 84.747 100.605 82.705 101.785C80.664 102.965 78.336 103.555 75.72 103.555Z" fill="#E94420"/>
<path d="M345.677 0.671875C357.755 0.671875 366.234 2.48798 371.113 6.12008C375.993 9.75218 377.973 16.01 377.054 24.8934L375.085 43.6668C374.734 46.9926 375.303 49.5963 376.791 51.478C378.279 53.3598 380.434 54.6835 383.257 55.4493C386.079 56.2151 389.351 56.598 393.07 56.598V73.4021C389.394 73.4021 386.134 73.7851 383.29 74.5511C380.445 75.3171 378.279 76.6401 376.791 78.5221C375.303 80.4041 374.734 83.0081 375.085 86.3331L377.054 104.975C378.06 113.946 376.102 120.248 371.179 123.88C366.256 127.512 357.755 129.328 345.677 129.328V114.887C349.703 114.887 352.832 114.329 355.064 113.213C357.296 112.097 358.237 109.877 357.887 106.551L355.852 87.1871C355.327 82.2421 355.863 78.2701 357.46 75.2731C359.057 72.2751 361.497 69.9781 364.779 68.3811C368.061 66.7831 371.912 65.6561 376.332 65.0001C371.649 64.2999 367.678 63.1622 364.418 61.5868C361.158 60.0114 358.784 57.7249 357.296 54.7273C355.808 51.7297 355.327 47.7584 355.852 42.8134L357.887 23.4493C358.237 20.1235 357.285 17.9027 355.031 16.7868C352.778 15.6709 349.66 15.1129 345.677 15.1129V0.671875Z" fill="white"/>
<path d="M170.57 29.6753C162.824 52.9122 155.194 76.1881 147.333 99.3861C140.837 118.555 127.525 125.836 108.277 128.596C107.095 121.277 107.095 121.277 105.914 113.958C118.946 110.96 121.091 105.663 121.091 105.663C121.091 105.663 110.213 64.5306 99.1528 29.6753C110.115 29.6753 110.115 29.6753 121.077 29.6753C127.838 57.9009 127.838 57.9009 134.599 86.1261C141.95 57.9009 141.95 57.9009 149.302 29.6753C159.936 29.6753 159.936 29.6753 170.57 29.6753Z" fill="white"/>
<path d="M220.391 85.273C223.236 85.273 225.916 84.715 228.433 83.599C230.949 82.483 233.454 81.05 235.948 79.3L245.204 92.428C242.141 95.054 238.41 97.242 234.012 98.992C229.614 100.743 224.702 101.618 219.276 101.618C211.793 101.618 205.36 100.075 199.977 96.99C194.595 93.905 190.459 89.616 187.571 84.124C184.683 78.632 183.239 72.254 183.239 64.99C183.239 57.7258 184.716 51.2601 187.669 45.5931C190.623 39.9261 194.824 35.4734 200.273 32.2352C205.721 28.9969 212.186 27.3777 219.669 27.3777C224.964 27.3777 229.68 28.1107 233.815 29.5767C237.95 31.0427 241.747 33.2198 245.204 36.108L236.211 48.5798C233.848 46.9169 231.354 45.6259 228.728 44.7069C226.102 43.788 223.367 43.3285 220.523 43.3285C215.84 43.3285 212.066 44.9805 209.2 48.2844C206.333 51.5883 204.9 57.1569 204.9 64.99C204.9 70.11 205.578 74.147 206.935 77.101C208.292 80.055 210.141 82.155 212.482 83.402C214.823 84.65 217.46 85.273 220.391 85.273Z" fill="white"/>
<path d="M262.861 99.3861V85.4701H272.051V43.4599H262.861V29.6753H292.028L291.678 45.3635C294.172 39.3682 297.356 34.9047 301.228 31.9727C305.101 29.0407 309.838 27.5747 315.44 27.5747C317.803 27.5747 319.903 27.7607 321.741 28.1327C323.579 28.5047 325.308 29.0188 326.927 29.6753L323.054 58.8199H310.057V45.9542C306.119 46.6544 302.662 48.7877 299.686 52.3542C296.71 55.9207 294.413 60.3077 292.794 65.5151V85.4701H306.578V99.3861H262.861Z" fill="white"/>
</svg>
