<svg width="27" height="14" viewBox="0 0 27 14" fill="none" xmlns="http://www.w3.org/2000/svg">
<g filter="url(#filter0_i_152_40)">
<path d="M8.17594 0.711999H10.8939L6.51994 11.494C6.24394 12.178 5.87794 12.7 5.42194 13.06C4.96594 13.42 4.34194 13.6 3.54994 13.6H1.71394V11.53H3.94594L4.52194 9.946L0.777938 0.711999H3.63994L4.98994 4.618L5.83594 7.318H5.97994L6.78994 4.618L8.17594 0.711999ZM12.1289 10.144C11.6809 10.144 11.3569 10.048 11.1569 9.856C10.9649 9.656 10.8689 9.42 10.8689 9.148V8.728C10.8689 8.456 10.9649 8.224 11.1569 8.032C11.3569 7.832 11.6809 7.732 12.1289 7.732C12.5769 7.732 12.8969 7.832 13.0889 8.032C13.2889 8.224 13.3889 8.456 13.3889 8.728V9.148C13.3889 9.42 13.2889 9.656 13.0889 9.856C12.8969 10.048 12.5769 10.144 12.1289 10.144ZM12.1289 6.076C11.6809 6.076 11.3569 5.98 11.1569 5.788C10.9649 5.588 10.8689 5.352 10.8689 5.08V4.66C10.8689 4.388 10.9649 4.156 11.1569 3.964C11.3569 3.764 11.6809 3.664 12.1289 3.664C12.5769 3.664 12.8969 3.764 13.0889 3.964C13.2889 4.156 13.3889 4.388 13.3889 4.66V5.08C13.3889 5.352 13.2889 5.588 13.0889 5.788C12.8969 5.98 12.5769 6.076 12.1289 6.076ZM14.8732 11.794L19.0462 0.119999H20.7752L16.6022 11.794H14.8732ZM20.8741 8.128L24.7351 6.087V5.983L20.8741 3.942V2.148L26.4641 5.138V6.932L20.8741 9.922V8.128Z" fill="#6300FF"/>
</g>
<path d="M8.17594 0.711999V0.511999H8.03469L7.98745 0.645117L8.17594 0.711999ZM10.8939 0.711999L11.0793 0.787184L11.1909 0.511999H10.8939V0.711999ZM6.51994 11.494L6.33461 11.4188L6.33447 11.4192L6.51994 11.494ZM5.42194 13.06L5.29801 12.903L5.29801 12.903L5.42194 13.06ZM1.71394 13.6H1.51394V13.8H1.71394V13.6ZM1.71394 11.53V11.33H1.51394V11.53H1.71394ZM3.94594 11.53V11.73H4.08602L4.1339 11.5983L3.94594 11.53ZM4.52194 9.946L4.7099 10.0143L4.73617 9.9421L4.70728 9.87085L4.52194 9.946ZM0.777938 0.711999V0.511999H0.481032L0.592593 0.787149L0.777938 0.711999ZM3.63994 0.711999L3.82897 0.646667L3.78242 0.511999H3.63994V0.711999ZM4.98994 4.618L5.18087 4.55817L5.17897 4.55267L4.98994 4.618ZM5.83594 7.318L5.64509 7.3778L5.68902 7.518H5.83594V7.318ZM5.97994 7.318V7.518H6.12874L6.1715 7.37547L5.97994 7.318ZM6.78994 4.618L6.60122 4.55104L6.59837 4.56053L6.78994 4.618ZM8.17594 0.911999H10.8939V0.511999H8.17594V0.911999ZM10.7086 0.636815L6.33461 11.4188L6.70527 11.5692L11.0793 0.787184L10.7086 0.636815ZM6.33447 11.4192C6.06804 12.0794 5.72028 12.5697 5.29801 12.903L5.54587 13.217C6.0356 12.8303 6.41984 12.2766 6.70541 11.5688L6.33447 11.4192ZM5.29801 12.903C4.88821 13.2266 4.31316 13.4 3.54994 13.4V13.8C4.37071 13.8 5.04367 13.6134 5.54587 13.217L5.29801 12.903ZM3.54994 13.4H1.71394V13.8H3.54994V13.4ZM1.91394 13.6V11.53H1.51394V13.6H1.91394ZM1.71394 11.73H3.94594V11.33H1.71394V11.73ZM4.1339 11.5983L4.7099 10.0143L4.33398 9.87765L3.75798 11.4617L4.1339 11.5983ZM4.70728 9.87085L0.963282 0.63685L0.592593 0.787149L4.33659 10.0211L4.70728 9.87085ZM0.777938 0.911999H3.63994V0.511999H0.777938V0.911999ZM3.45091 0.777332L4.80091 4.68333L5.17897 4.55267L3.82897 0.646667L3.45091 0.777332ZM4.79909 4.6778L5.64509 7.3778L6.02679 7.2582L5.18079 4.5582L4.79909 4.6778ZM5.83594 7.518H5.97994V7.118H5.83594V7.518ZM6.1715 7.37547L6.9815 4.67547L6.59837 4.56053L5.78837 7.26053L6.1715 7.37547ZM6.97842 4.68488L8.36442 0.778881L7.98745 0.645117L6.60145 4.55112L6.97842 4.68488ZM11.1569 9.856L11.0125 9.99462L11.0184 10.0003L11.1569 9.856ZM13.0889 8.032L12.9445 8.17062L12.9504 8.17628L13.0889 8.032ZM13.0889 9.856L13.2303 9.99742L13.2303 9.99742L13.0889 9.856ZM11.1569 5.788L11.0125 5.92662L11.0184 5.93228L11.1569 5.788ZM11.1569 3.964L11.0155 3.82258L11.0155 3.82258L11.1569 3.964ZM13.0889 3.964L12.9445 4.10262L12.9504 4.10828L13.0889 3.964ZM13.0889 5.788L13.2303 5.92942L13.2303 5.92942L13.0889 5.788ZM12.1289 9.944C11.7022 9.944 11.4409 9.8514 11.2954 9.71172L11.0184 10.0003C11.2729 10.2446 11.6596 10.344 12.1289 10.344V9.944ZM11.3012 9.71749C11.1442 9.55394 11.0689 9.36727 11.0689 9.148H10.6689C10.6689 9.47273 10.7856 9.75806 11.0126 9.99451L11.3012 9.71749ZM11.0689 9.148V8.728H10.6689V9.148H11.0689ZM11.0689 8.728C11.0689 8.50894 11.1439 8.32784 11.2983 8.17342L11.0155 7.89058C10.7859 8.12016 10.6689 8.40306 10.6689 8.728H11.0689ZM11.2983 8.17342C11.4439 8.02781 11.704 7.932 12.1289 7.932V7.532C11.6578 7.532 11.2699 7.63619 11.0155 7.89058L11.2983 8.17342ZM12.1289 7.932C12.5548 7.932 12.808 8.02822 12.9446 8.17051L13.2332 7.89349C12.9858 7.63578 12.599 7.532 12.1289 7.532V7.932ZM12.9504 8.17628C13.112 8.33138 13.1889 8.51163 13.1889 8.728H13.5889C13.5889 8.40037 13.4658 8.11662 13.2274 7.88772L12.9504 8.17628ZM13.1889 8.728V9.148H13.5889V8.728H13.1889ZM13.1889 9.148C13.1889 9.36464 13.1116 9.55042 12.9475 9.71458L13.2303 9.99742C13.4662 9.76158 13.5889 9.47536 13.5889 9.148H13.1889ZM12.9475 9.71458C12.8111 9.85097 12.5566 9.944 12.1289 9.944V10.344C12.5972 10.344 12.9827 10.245 13.2303 9.99742L12.9475 9.71458ZM12.1289 5.876C11.7022 5.876 11.4409 5.7834 11.2954 5.64372L11.0184 5.93228C11.2729 6.1766 11.6596 6.276 12.1289 6.276V5.876ZM11.3012 5.64949C11.1442 5.48594 11.0689 5.29927 11.0689 5.08H10.6689C10.6689 5.40473 10.7856 5.69006 11.0126 5.92651L11.3012 5.64949ZM11.0689 5.08V4.66H10.6689V5.08H11.0689ZM11.0689 4.66C11.0689 4.44094 11.1439 4.25984 11.2983 4.10542L11.0155 3.82258C10.7859 4.05216 10.6689 4.33506 10.6689 4.66H11.0689ZM11.2983 4.10542C11.4439 3.95981 11.704 3.864 12.1289 3.864V3.464C11.6578 3.464 11.2699 3.56819 11.0155 3.82258L11.2983 4.10542ZM12.1289 3.864C12.5548 3.864 12.808 3.96022 12.9446 4.10251L13.2332 3.82549C12.9858 3.56778 12.599 3.464 12.1289 3.464V3.864ZM12.9504 4.10828C13.112 4.26338 13.1889 4.44363 13.1889 4.66H13.5889C13.5889 4.33237 13.4658 4.04862 13.2274 3.81972L12.9504 4.10828ZM13.1889 4.66V5.08H13.5889V4.66H13.1889ZM13.1889 5.08C13.1889 5.29664 13.1116 5.48242 12.9475 5.64658L13.2303 5.92942C13.4662 5.69358 13.5889 5.40736 13.5889 5.08H13.1889ZM12.9475 5.64658C12.8111 5.78297 12.5566 5.876 12.1289 5.876V6.276C12.5972 6.276 12.9827 6.17703 13.2303 5.92942L12.9475 5.64658ZM14.8732 11.794L14.6849 11.7267L14.5893 11.994H14.8732V11.794ZM19.0462 0.119999V-0.0800007H18.9053L18.8579 0.0526789L19.0462 0.119999ZM20.7752 0.119999L20.9635 0.18732L21.0591 -0.0800007H20.7752V0.119999ZM16.6022 11.794V11.994H16.7431L16.7905 11.8613L16.6022 11.794ZM15.0615 11.8613L19.2345 0.18732L18.8579 0.0526789L14.6849 11.7267L15.0615 11.8613ZM19.0462 0.319999H20.7752V-0.0800007H19.0462V0.319999ZM20.5869 0.0526789L16.4139 11.7267L16.7905 11.8613L20.9635 0.18732L20.5869 0.0526789ZM16.6022 11.594H14.8732V11.994H16.6022V11.594ZM20.8741 8.128L20.7807 7.95118L20.6741 8.0075V8.128H20.8741ZM24.7351 6.087L24.8286 6.26382L24.9351 6.2075V6.087H24.7351ZM24.7351 5.983H24.9351V5.8625L24.8286 5.80618L24.7351 5.983ZM20.8741 3.942H20.6741V4.0625L20.7807 4.11882L20.8741 3.942ZM20.8741 2.148L20.9685 1.97164L20.6741 1.81421V2.148H20.8741ZM26.4641 5.138H26.6641V5.01816L26.5585 4.96164L26.4641 5.138ZM26.4641 6.932L26.5585 7.10836L26.6641 7.05184V6.932H26.4641ZM20.8741 9.922H20.6741V10.2558L20.9685 10.0984L20.8741 9.922ZM20.9676 8.30482L24.8286 6.26382L24.6417 5.91018L20.7807 7.95118L20.9676 8.30482ZM24.9351 6.087V5.983H24.5351V6.087H24.9351ZM24.8286 5.80618L20.9676 3.76518L20.7807 4.11882L24.6417 6.15982L24.8286 5.80618ZM21.0741 3.942V2.148H20.6741V3.942H21.0741ZM20.7798 2.32436L26.3698 5.31436L26.5585 4.96164L20.9685 1.97164L20.7798 2.32436ZM26.2641 5.138V6.932H26.6641V5.138H26.2641ZM26.3698 6.75564L20.7798 9.74564L20.9685 10.0984L26.5585 7.10836L26.3698 6.75564ZM21.0741 9.922V8.128H20.6741V9.922H21.0741Z" fill="black"/>
<defs>
<filter id="filter0_i_152_40" x="0.777832" y="0.120117" width="25.6865" height="17.48" filterUnits="userSpaceOnUse" color-interpolation-filters="sRGB">
<feFlood flood-opacity="0" result="BackgroundImageFix"/>
<feBlend mode="normal" in="SourceGraphic" in2="BackgroundImageFix" result="shape"/>
<feColorMatrix in="SourceAlpha" type="matrix" values="0 0 0 0 0 0 0 0 0 0 0 0 0 0 0 0 0 0 127 0" result="hardAlpha"/>
<feOffset dy="4"/>
<feGaussianBlur stdDeviation="2"/>
<feComposite in2="hardAlpha" operator="arithmetic" k2="-1" k3="1"/>
<feColorMatrix type="matrix" values="0 0 0 0 0 0 0 0 0 0 0 0 0 0 0 0 0 0 0.25 0"/>
<feBlend mode="normal" in2="shape" result="effect1_innerShadow_152_40"/>
</filter>
</defs>
</svg>
