<svg width="20" height="13" viewBox="0 0 20 13" fill="none" xmlns="http://www.w3.org/2000/svg">
<g filter="url(#filter0_i_152_40)">
<path d="M6.48281 2.26H8.74781L5.10281 11.245C4.87281 11.815 4.56781 12.25 4.18781 12.55C3.80781 12.85 3.28781 13 2.62781 13H1.09781V11.275H2.95781L3.43781 9.955L0.317812 2.26H2.70281L3.82781 5.515L4.53281 7.765H4.65281L5.32781 5.515L6.48281 2.26ZM10.377 10.144C9.92895 10.144 9.60495 10.048 9.40495 9.856C9.21295 9.656 9.11695 9.42 9.11695 9.148V8.728C9.11695 8.456 9.21295 8.224 9.40495 8.032C9.60495 7.832 9.92895 7.732 10.377 7.732C10.825 7.732 11.145 7.832 11.337 8.032C11.537 8.224 11.637 8.456 11.637 8.728V9.148C11.637 9.42 11.537 9.656 11.337 9.856C11.145 10.048 10.825 10.144 10.377 10.144ZM10.377 6.076C9.92895 6.076 9.60495 5.98 9.40495 5.788C9.21295 5.588 9.11695 5.352 9.11695 5.08V4.66C9.11695 4.388 9.21295 4.156 9.40495 3.964C9.60495 3.764 9.92895 3.664 10.377 3.664C10.825 3.664 11.145 3.764 11.337 3.964C11.537 4.156 11.637 4.388 11.637 4.66V5.08C11.637 5.352 11.537 5.588 11.337 5.788C11.145 5.98 10.825 6.076 10.377 6.076ZM13.1213 11.794L17.2943 0.119999H19.0233L14.8503 11.794H13.1213Z" fill="#6300FF"/>
</g>
<path d="M6.48281 2.26V2.06H6.34156L6.29433 2.19312L6.48281 2.26ZM8.74781 2.26L8.93314 2.33518L9.04478 2.06H8.74781V2.26ZM5.10281 11.245L4.91748 11.1698L4.91734 11.1702L5.10281 11.245ZM4.18781 12.55L4.06388 12.393L4.06388 12.393L4.18781 12.55ZM1.09781 13H0.897812V13.2H1.09781V13ZM1.09781 11.275V11.075H0.897812V11.275H1.09781ZM2.95781 11.275V11.475H3.0979L3.14577 11.3433L2.95781 11.275ZM3.43781 9.955L3.62577 10.0233L3.65204 9.9511L3.62316 9.87985L3.43781 9.955ZM0.317812 2.26V2.06H0.0209061L0.132468 2.33515L0.317812 2.26ZM2.70281 2.26L2.89184 2.19467L2.8453 2.06H2.70281V2.26ZM3.82781 5.515L4.01874 5.45517L4.01684 5.44967L3.82781 5.515ZM4.53281 7.765L4.34196 7.8248L4.38589 7.965H4.53281V7.765ZM4.65281 7.765V7.965H4.80162L4.84438 7.82247L4.65281 7.765ZM5.32781 5.515L5.1391 5.44804L5.13625 5.45753L5.32781 5.515ZM6.48281 2.46H8.74781V2.06H6.48281V2.46ZM8.56248 2.18482L4.91748 11.1698L5.28814 11.3202L8.93314 2.33518L8.56248 2.18482ZM4.91734 11.1702C4.69692 11.7164 4.41015 12.1197 4.06388 12.393L4.31174 12.707C4.72547 12.3803 5.04871 11.9136 5.28828 11.3198L4.91734 11.1702ZM4.06388 12.393C3.73008 12.6566 3.25904 12.8 2.62781 12.8V13.2C3.31659 13.2 3.88555 13.0434 4.31174 12.707L4.06388 12.393ZM2.62781 12.8H1.09781V13.2H2.62781V12.8ZM1.29781 13V11.275H0.897812V13H1.29781ZM1.09781 11.475H2.95781V11.075H1.09781V11.475ZM3.14577 11.3433L3.62577 10.0233L3.24985 9.88665L2.76985 11.2067L3.14577 11.3433ZM3.62316 9.87985L0.503157 2.18485L0.132468 2.33515L3.25247 10.0301L3.62316 9.87985ZM0.317812 2.46H2.70281V2.06H0.317812V2.46ZM2.51378 2.32533L3.63878 5.58033L4.01684 5.44967L2.89184 2.19467L2.51378 2.32533ZM3.63696 5.5748L4.34196 7.8248L4.72366 7.7052L4.01866 5.4552L3.63696 5.5748ZM4.53281 7.965H4.65281V7.565H4.53281V7.965ZM4.84438 7.82247L5.51938 5.57247L5.13625 5.45753L4.46125 7.70753L4.84438 7.82247ZM5.5163 5.58188L6.6713 2.32688L6.29433 2.19312L5.13933 5.44812L5.5163 5.58188ZM9.40495 9.856L9.26056 9.99462L9.26645 10.0003L9.40495 9.856ZM11.337 8.032L11.1926 8.17062L11.1984 8.17628L11.337 8.032ZM11.337 9.856L11.4784 9.99742L11.4784 9.99742L11.337 9.856ZM9.40495 5.788L9.26056 5.92662L9.26645 5.93228L9.40495 5.788ZM9.40495 3.964L9.26353 3.82258L9.26353 3.82258L9.40495 3.964ZM11.337 3.964L11.1926 4.10262L11.1984 4.10828L11.337 3.964ZM11.337 5.788L11.4784 5.92942L11.4784 5.92942L11.337 5.788ZM10.377 9.944C9.95029 9.944 9.68896 9.8514 9.54346 9.71172L9.26645 10.0003C9.52095 10.2446 9.90761 10.344 10.377 10.344V9.944ZM9.54923 9.71749C9.39222 9.55394 9.31695 9.36727 9.31695 9.148H8.91695C8.91695 9.47273 9.03369 9.75806 9.26068 9.99451L9.54923 9.71749ZM9.31695 9.148V8.728H8.91695V9.148H9.31695ZM9.31695 8.728C9.31695 8.50894 9.39195 8.32784 9.54637 8.17342L9.26353 7.89058C9.03395 8.12016 8.91695 8.40306 8.91695 8.728H9.31695ZM9.54637 8.17342C9.69199 8.02781 9.95206 7.932 10.377 7.932V7.532C9.90584 7.532 9.51792 7.63619 9.26353 7.89058L9.54637 8.17342ZM10.377 7.932C10.8028 7.932 11.0561 8.02822 11.1927 8.17051L11.4812 7.89349C11.2338 7.63578 10.8471 7.532 10.377 7.532V7.932ZM11.1984 8.17628C11.36 8.33138 11.437 8.51163 11.437 8.728H11.837C11.837 8.40037 11.7139 8.11662 11.4755 7.88772L11.1984 8.17628ZM11.437 8.728V9.148H11.837V8.728H11.437ZM11.437 9.148C11.437 9.36464 11.3597 9.55042 11.1955 9.71458L11.4784 9.99742C11.7142 9.76158 11.837 9.47536 11.837 9.148H11.437ZM11.1955 9.71458C11.0591 9.85097 10.8047 9.944 10.377 9.944V10.344C10.8453 10.344 11.2308 10.245 11.4784 9.99742L11.1955 9.71458ZM10.377 5.876C9.95029 5.876 9.68896 5.7834 9.54346 5.64372L9.26645 5.93228C9.52095 6.1766 9.90761 6.276 10.377 6.276V5.876ZM9.54923 5.64949C9.39222 5.48594 9.31695 5.29927 9.31695 5.08H8.91695C8.91695 5.40473 9.03369 5.69006 9.26068 5.92651L9.54923 5.64949ZM9.31695 5.08V4.66H8.91695V5.08H9.31695ZM9.31695 4.66C9.31695 4.44094 9.39195 4.25984 9.54637 4.10542L9.26353 3.82258C9.03395 4.05216 8.91695 4.33506 8.91695 4.66H9.31695ZM9.54637 4.10542C9.69199 3.95981 9.95206 3.864 10.377 3.864V3.464C9.90584 3.464 9.51792 3.56819 9.26353 3.82258L9.54637 4.10542ZM10.377 3.864C10.8028 3.864 11.0561 3.96022 11.1927 4.10251L11.4812 3.82549C11.2338 3.56778 10.8471 3.464 10.377 3.464V3.864ZM11.1984 4.10828C11.36 4.26338 11.437 4.44363 11.437 4.66H11.837C11.837 4.33237 11.7139 4.04862 11.4755 3.81972L11.1984 4.10828ZM11.437 4.66V5.08H11.837V4.66H11.437ZM11.437 5.08C11.437 5.29664 11.3597 5.48242 11.1955 5.64658L11.4784 5.92942C11.7142 5.69358 11.837 5.40736 11.837 5.08H11.437ZM11.1955 5.64658C11.0591 5.78297 10.8047 5.876 10.377 5.876V6.276C10.8453 6.276 11.2308 6.17703 11.4784 5.92942L11.1955 5.64658ZM13.1213 11.794L12.9329 11.7267L12.8374 11.994H13.1213V11.794ZM17.2943 0.119999V-0.0800007H17.1534L17.1059 0.0526789L17.2943 0.119999ZM19.0233 0.119999L19.2116 0.18732L19.3072 -0.0800007H19.0233V0.119999ZM14.8503 11.794V11.994H14.9912L15.0386 11.8613L14.8503 11.794ZM13.3096 11.8613L17.4826 0.18732L17.1059 0.0526789L12.9329 11.7267L13.3096 11.8613ZM17.2943 0.319999H19.0233V-0.0800007H17.2943V0.319999ZM18.8349 0.0526789L14.6619 11.7267L15.0386 11.8613L19.2116 0.18732L18.8349 0.0526789ZM14.8503 11.594H13.1213V11.994H14.8503V11.594Z" fill="black"/>
<defs>
<filter id="filter0_i_152_40" x="0.317871" y="0.120117" width="18.7056" height="16.8799" filterUnits="userSpaceOnUse" color-interpolation-filters="sRGB">
<feFlood flood-opacity="0" result="BackgroundImageFix"/>
<feBlend mode="normal" in="SourceGraphic" in2="BackgroundImageFix" result="shape"/>
<feColorMatrix in="SourceAlpha" type="matrix" values="0 0 0 0 0 0 0 0 0 0 0 0 0 0 0 0 0 0 127 0" result="hardAlpha"/>
<feOffset dy="4"/>
<feGaussianBlur stdDeviation="2"/>
<feComposite in2="hardAlpha" operator="arithmetic" k2="-1" k3="1"/>
<feColorMatrix type="matrix" values="0 0 0 0 0 0 0 0 0 0 0 0 0 0 0 0 0 0 0.25 0"/>
<feBlend mode="normal" in2="shape" result="effect1_innerShadow_152_40"/>
</filter>
</defs>
</svg>
