<svg width="180" height="163" viewBox="0 0 180 163" fill="none" xmlns="http://www.w3.org/2000/svg">
<g clip-path="url(#clip0_163_47)">
<path d="M51.2 151.44C47 151.44 43.5467 150.087 40.84 147.38C38.2267 144.767 36.92 141.36 36.92 137.16V93.76C36.92 91.0533 35.66 89.7 33.14 89.7H17.04V72.9H33.14C35.66 72.9 36.92 71.5467 36.92 68.84V25.44C36.92 21.24 38.2267 17.8333 40.84 15.22C43.5467 12.5133 47 11.16 51.2 11.16H75V26.28H57.78C55.26 26.28 54 27.68 54 30.48V68.84C54 72.0133 52.9733 74.6733 50.92 76.82C48.96 78.9667 46.3467 80.04 43.08 80.04H40.84V82.56H43.08C46.3467 82.56 48.96 83.6333 50.92 85.78C52.9733 87.9267 54 90.5867 54 93.76V132.12C54 134.92 55.26 136.32 57.78 136.32H75V151.44H51.2ZM106.241 151.44V136.32H123.461C125.981 136.32 127.241 134.92 127.241 132.12V93.76C127.241 90.5867 128.221 87.9267 130.181 85.78C132.234 83.6333 134.894 82.56 138.161 82.56H140.401V80.04H138.161C134.894 80.04 132.234 78.9667 130.181 76.82C128.221 74.6733 127.241 72.0133 127.241 68.84V30.48C127.241 27.68 125.981 26.28 123.461 26.28H106.241V11.16H130.041C134.241 11.16 137.647 12.5133 140.261 15.22C142.967 17.8333 144.321 21.24 144.321 25.44V68.84C144.321 71.5467 145.581 72.9 148.101 72.9H164.201V89.7H148.101C145.581 89.7 144.321 91.0533 144.321 93.76V137.16C144.321 141.36 142.967 144.767 140.261 147.38C137.647 150.087 134.241 151.44 130.041 151.44H106.241Z" fill="black"/>
<path d="M92.6148 119.8C88.7482 119.8 85.4815 118.533 82.8148 116C80.2815 113.467 79.0148 110.2 79.0148 106.2C79.0148 102.2 80.2815 98.9333 82.8148 96.4C85.4815 93.8667 88.7482 92.6 92.6148 92.6C96.6148 92.6 99.8815 93.8667 102.415 96.4C104.948 98.9333 106.215 102.2 106.215 106.2C106.215 110.2 104.948 113.467 102.415 116C99.8815 118.533 96.6148 119.8 92.6148 119.8Z" fill="#E94420"/>
</g>
<defs>
<clipPath id="clip0_163_47">
<rect width="180" height="163" fill="white"/>
</clipPath>
</defs>
</svg>
